<?xml version="1.0" encoding="UTF-8" standalone="no"?>
<svg
   xmlns:dc="http://purl.org/dc/elements/1.1/"
   xmlns:cc="http://creativecommons.org/ns#"
   xmlns:rdf="http://www.w3.org/1999/02/22-rdf-syntax-ns#"
   xmlns:svg="http://www.w3.org/2000/svg"
   xmlns="http://www.w3.org/2000/svg"
   xmlns:sodipodi="http://sodipodi.sourceforge.net/DTD/sodipodi-0.dtd"
   xmlns:inkscape="http://www.inkscape.org/namespaces/inkscape"
   width="159.916992pt"
   height="28.330078pt"
   viewBox="0 0 159.916992 28.330078"
   version="1.2"
   id="svg850"
   sodipodi:docname="gemeinde_abc_schriftzug.svg"
   inkscape:version="0.92.4 (5da689c313, 2019-01-14)">
  <metadata
     id="metadata854">
    <rdf:RDF>
      <cc:Work
         rdf:about="">
        <dc:format>image/svg+xml</dc:format>
        <dc:type
           rdf:resource="http://purl.org/dc/dcmitype/StillImage" />
        <dc:title></dc:title>
      </cc:Work>
    </rdf:RDF>
  </metadata>
  <sodipodi:namedview
     pagecolor="#ffffff"
     bordercolor="#666666"
     borderopacity="1"
     objecttolerance="10"
     gridtolerance="10"
     guidetolerance="10"
     inkscape:pageopacity="0"
     inkscape:pageshadow="2"
     inkscape:window-width="1920"
     inkscape:window-height="1147"
     id="namedview852"
     showgrid="false"
     inkscape:zoom="5.8671063"
     inkscape:cx="106.61133"
     inkscape:cy="18.886719"
     inkscape:window-x="-8"
     inkscape:window-y="-8"
     inkscape:window-maximized="1"
     inkscape:current-layer="svg850" />
  <defs
     id="defs821">
    <clipPath
       id="clip1">
      <path
         d="M 0 3 L 17 3 L 17 28.328125 L 0 28.328125 Z M 0 3 "
         id="path815" />
    </clipPath>
    <clipPath
       id="clip2">
      <path
         d="M 144 3 L 159.917969 3 L 159.917969 24 L 144 24 Z M 144 3 "
         id="path818" />
    </clipPath>
  </defs>
  <g
     id="surface5466">
    <g
       clip-path="url(#clip1)"
       clip-rule="nonzero"
       id="g825">
      <path
         style=" stroke:none;fill-rule:nonzero;fill:rgb(100%,100%,100%);fill-opacity:1;"
         d="M 15.707031 8.96875 L 14.910156 8.96875 C 14.960938 8.511719 14.988281 8.105469 14.988281 7.75 C 14.988281 6.429688 14.648438 5.464844 13.972656 4.859375 C 13.292969 4.257813 12.453125 3.953125 11.457031 3.953125 C 10.082031 3.953125 8.699219 4.425781 7.316406 5.359375 C 5.929688 6.289063 4.792969 7.589844 3.910156 9.265625 C 3.023438 10.933594 2.582031 12.675781 2.582031 14.484375 C 2.582031 16.328125 3.019531 17.691406 3.894531 18.5625 C 4.765625 19.429688 5.746094 19.859375 6.832031 19.859375 C 7.476563 19.859375 8.089844 19.777344 8.675781 19.609375 C 9.265625 19.433594 9.835938 19.183594 10.378906 18.859375 C 10.824219 17.320313 11.050781 16.296875 11.050781 15.796875 C 11.050781 15.550781 10.953125 15.355469 10.769531 15.21875 C 10.589844 15.074219 10.273438 15 9.816406 15 C 9.660156 15 9.28125 15.027344 8.691406 15.078125 L 8.816406 14.359375 C 9.242188 14.277344 9.679688 14.234375 10.128906 14.234375 C 10.46875 14.234375 10.902344 14.246094 11.425781 14.265625 C 11.828125 14.277344 12.128906 14.28125 12.316406 14.28125 C 12.667969 14.28125 13.207031 14.25 13.925781 14.1875 C 14.308594 14.167969 14.636719 14.152344 14.910156 14.140625 L 14.753906 14.875 C 14.261719 14.875 13.914063 14.988281 13.707031 15.203125 C 13.507813 15.421875 13.292969 15.996094 13.066406 16.921875 C 12.261719 20.257813 11.46875 22.660156 10.691406 24.140625 C 9.910156 25.628906 9.015625 26.695313 8.019531 27.34375 C 7.027344 27.996094 5.953125 28.328125 4.800781 28.328125 C 3.832031 28.328125 3.042969 28.101563 2.441406 27.65625 C 1.835938 27.21875 1.535156 26.753906 1.535156 26.265625 C 1.535156 26.003906 1.628906 25.777344 1.816406 25.59375 C 2.011719 25.40625 2.230469 25.3125 2.472656 25.3125 C 2.804688 25.3125 3.179688 25.546875 3.597656 26.015625 C 4.074219 26.542969 4.449219 26.890625 4.722656 27.046875 C 4.992188 27.199219 5.277344 27.28125 5.582031 27.28125 C 6.195313 27.28125 6.738281 27.039063 7.207031 26.5625 C 8.164063 25.613281 9.105469 23.417969 10.035156 19.984375 C 9.386719 20.328125 8.730469 20.589844 8.066406 20.765625 C 7.410156 20.949219 6.730469 21.046875 6.035156 21.046875 C 4.316406 21.046875 2.960938 20.59375 1.972656 19.6875 C 0.660156 18.480469 0.00390625 16.792969 0.00390625 14.625 C 0.00390625 12.648438 0.503906 10.789063 1.503906 9.046875 C 2.5 7.308594 3.894531 5.882813 5.675781 4.765625 C 7.453125 3.644531 9.148438 3.078125 10.753906 3.078125 C 11.617188 3.078125 12.636719 3.214844 13.816406 3.484375 C 14.992188 3.746094 15.886719 3.882813 16.503906 3.890625 C 15.972656 5.746094 15.707031 7.441406 15.707031 8.96875 Z M 15.707031 8.96875 "
         id="path823" />
    </g>
    <path
       style=" stroke:none;fill-rule:nonzero;fill:rgb(100%,100%,100%);fill-opacity:1;"
       d="M 25.058594 16.953125 L 25.542969 17.59375 C 23.15625 19.867188 21.109375 21 19.402344 21 C 18.703125 21 18.171875 20.761719 17.808594 20.296875 C 17.441406 19.832031 17.261719 19.078125 17.261719 18.046875 C 17.261719 15.957031 17.894531 13.875 19.167969 11.8125 C 20.582031 9.460938 22.285156 8.28125 24.277344 8.28125 C 24.960938 8.28125 25.488281 8.457031 25.855469 8.796875 C 26.226563 9.140625 26.417969 9.617188 26.417969 10.21875 C 26.417969 10.855469 26.191406 11.480469 25.746094 12.09375 C 25.308594 12.710938 24.523438 13.351563 23.402344 14.015625 C 22.828125 14.339844 21.613281 14.925781 19.761719 15.765625 C 19.675781 16.289063 19.636719 16.789063 19.636719 17.265625 C 19.636719 17.964844 19.746094 18.449219 19.964844 18.71875 C 20.179688 18.992188 20.5 19.125 20.917969 19.125 C 21.320313 19.125 21.761719 19.015625 22.230469 18.796875 C 22.875 18.496094 23.816406 17.882813 25.058594 16.953125 Z M 19.933594 14.828125 C 21.503906 14.121094 22.6875 13.359375 23.480469 12.546875 C 24.019531 11.988281 24.292969 11.429688 24.292969 10.875 C 24.292969 10.449219 24.179688 10.109375 23.964844 9.859375 C 23.746094 9.613281 23.457031 9.484375 23.105469 9.484375 C 22.738281 9.484375 22.382813 9.628906 22.042969 9.90625 C 21.582031 10.261719 21.195313 10.808594 20.886719 11.546875 C 20.4375 12.621094 20.117188 13.714844 19.933594 14.828125 Z M 19.933594 14.828125 "
       id="path827" />
    <path
       style=" stroke:none;fill-rule:nonzero;fill:rgb(100%,100%,100%);fill-opacity:1;"
       d="M 27.972656 11.671875 L 27.535156 11.09375 C 28.5 10.128906 29.417969 9.414063 30.285156 8.953125 C 31.15625 8.496094 31.847656 8.265625 32.347656 8.265625 C 32.554688 8.265625 32.707031 8.316406 32.800781 8.40625 C 32.902344 8.492188 32.957031 8.613281 32.957031 8.765625 C 32.957031 8.953125 32.875 9.332031 32.722656 9.890625 C 32.503906 10.714844 32.34375 11.363281 32.253906 11.828125 C 34.59375 9.457031 36.386719 8.265625 37.628906 8.265625 C 37.949219 8.265625 38.195313 8.355469 38.363281 8.53125 C 38.527344 8.699219 38.613281 8.976563 38.613281 9.359375 C 38.613281 9.765625 38.464844 10.464844 38.175781 11.453125 C 39.289063 10.300781 40.253906 9.480469 41.066406 9 C 41.886719 8.511719 42.527344 8.265625 42.988281 8.265625 C 43.402344 8.265625 43.722656 8.386719 43.941406 8.625 C 44.167969 8.855469 44.285156 9.214844 44.285156 9.703125 C 44.285156 9.996094 44.230469 10.347656 44.128906 10.75 C 44.035156 11.148438 43.679688 12.367188 43.066406 14.40625 C 42.292969 16.929688 41.910156 18.433594 41.910156 18.921875 C 41.910156 19.257813 42.042969 19.421875 42.316406 19.421875 C 42.5 19.421875 42.683594 19.367188 42.863281 19.25 C 43.433594 18.835938 44.023438 18.324219 44.628906 17.71875 L 45.113281 18.25 C 44.914063 18.417969 44.527344 18.761719 43.957031 19.28125 C 43.175781 19.980469 42.636719 20.417969 42.347656 20.59375 C 41.785156 20.925781 41.304688 21.09375 40.910156 21.09375 C 40.617188 21.09375 40.355469 20.945313 40.128906 20.65625 C 39.910156 20.378906 39.800781 19.980469 39.800781 19.46875 C 39.800781 19.003906 39.867188 18.453125 40.003906 17.828125 C 40.136719 17.195313 40.539063 15.777344 41.207031 13.578125 C 41.703125 11.933594 41.957031 10.933594 41.957031 10.578125 C 41.957031 10.246094 41.808594 10.078125 41.519531 10.078125 C 41.269531 10.078125 40.9375 10.199219 40.535156 10.4375 C 39.691406 10.949219 38.984375 11.570313 38.425781 12.296875 C 38.027344 12.808594 37.683594 13.617188 37.394531 14.71875 C 36.738281 17.136719 36.25 19.105469 35.941406 20.625 L 33.847656 20.625 L 36.035156 11.671875 C 36.1875 11.027344 36.269531 10.65625 36.269531 10.5625 C 36.269531 10.410156 36.226563 10.289063 36.144531 10.203125 C 36.070313 10.121094 35.960938 10.078125 35.816406 10.078125 C 35.554688 10.078125 35.140625 10.285156 34.582031 10.6875 C 33.613281 11.386719 32.914063 12.066406 32.488281 12.71875 C 32.070313 13.367188 31.710938 14.351563 31.410156 15.671875 L 30.285156 20.625 L 28.191406 20.625 L 29.847656 13.640625 C 30.324219 11.621094 30.566406 10.523438 30.566406 10.34375 C 30.566406 10.117188 30.480469 10 30.316406 10 C 29.929688 10 29.148438 10.558594 27.972656 11.671875 Z M 27.972656 11.671875 "
       id="path829" />
    <path
       style=" stroke:none;fill-rule:nonzero;fill:rgb(100%,100%,100%);fill-opacity:1;"
       d="M 53.886719 16.953125 L 54.371094 17.59375 C 51.984375 19.867188 49.9375 21 48.230469 21 C 47.53125 21 47 20.761719 46.636719 20.296875 C 46.269531 19.832031 46.089844 19.078125 46.089844 18.046875 C 46.089844 15.957031 46.722656 13.875 47.996094 11.8125 C 49.410156 9.460938 51.113281 8.28125 53.105469 8.28125 C 53.789063 8.28125 54.316406 8.457031 54.683594 8.796875 C 55.054688 9.140625 55.246094 9.617188 55.246094 10.21875 C 55.246094 10.855469 55.019531 11.480469 54.574219 12.09375 C 54.136719 12.710938 53.351563 13.351563 52.230469 14.015625 C 51.65625 14.339844 50.441406 14.925781 48.589844 15.765625 C 48.503906 16.289063 48.464844 16.789063 48.464844 17.265625 C 48.464844 17.964844 48.574219 18.449219 48.792969 18.71875 C 49.007813 18.992188 49.328125 19.125 49.746094 19.125 C 50.148438 19.125 50.589844 19.015625 51.058594 18.796875 C 51.703125 18.496094 52.644531 17.882813 53.886719 16.953125 Z M 48.761719 14.828125 C 50.332031 14.121094 51.515625 13.359375 52.308594 12.546875 C 52.847656 11.988281 53.121094 11.429688 53.121094 10.875 C 53.121094 10.449219 53.007813 10.109375 52.792969 9.859375 C 52.574219 9.613281 52.285156 9.484375 51.933594 9.484375 C 51.566406 9.484375 51.210938 9.628906 50.871094 9.90625 C 50.410156 10.261719 50.023438 10.808594 49.714844 11.546875 C 49.265625 12.621094 48.945313 13.714844 48.761719 14.828125 Z M 48.761719 14.828125 "
       id="path831" />
    <path
       style=" stroke:none;fill-rule:nonzero;fill:rgb(100%,100%,100%);fill-opacity:1;"
       d="M 62.660156 2 C 62.960938 2 63.207031 2.105469 63.394531 2.3125 C 63.589844 2.511719 63.691406 2.769531 63.691406 3.078125 C 63.691406 3.507813 63.539063 3.886719 63.238281 4.21875 C 62.945313 4.542969 62.609375 4.703125 62.238281 4.703125 C 61.945313 4.703125 61.699219 4.605469 61.503906 4.40625 C 61.316406 4.199219 61.222656 3.929688 61.222656 3.59375 C 61.222656 3.148438 61.363281 2.773438 61.644531 2.46875 C 61.921875 2.160156 62.261719 2 62.660156 2 Z M 56.878906 11.703125 L 56.238281 11.203125 C 57.214844 10.132813 58.105469 9.371094 58.910156 8.921875 C 59.710938 8.464844 60.398438 8.234375 60.972656 8.234375 C 61.28125 8.234375 61.523438 8.304688 61.691406 8.4375 C 61.855469 8.574219 61.941406 8.761719 61.941406 9 C 61.941406 9.28125 61.621094 10.480469 60.988281 12.59375 C 59.945313 16.0625 59.425781 18.152344 59.425781 18.859375 C 59.425781 19.007813 59.457031 19.128906 59.519531 19.21875 C 59.589844 19.304688 59.667969 19.34375 59.753906 19.34375 C 60.0625 19.34375 60.867188 18.742188 62.160156 17.53125 L 62.722656 18.09375 C 61.386719 19.355469 60.414063 20.164063 59.800781 20.515625 C 59.183594 20.855469 58.679688 21.03125 58.285156 21.03125 C 57.941406 21.03125 57.667969 20.917969 57.472656 20.703125 C 57.273438 20.496094 57.175781 20.199219 57.175781 19.8125 C 57.175781 18.597656 57.910156 15.617188 59.378906 10.875 C 59.4375 10.648438 59.472656 10.445313 59.472656 10.265625 C 59.472656 10.070313 59.382813 9.96875 59.207031 9.96875 C 59.007813 9.96875 58.78125 10.050781 58.535156 10.203125 C 58.292969 10.359375 57.742188 10.863281 56.878906 11.703125 Z M 56.878906 11.703125 "
       id="path833" />
    <path
       style=" stroke:none;fill-rule:nonzero;fill:rgb(100%,100%,100%);fill-opacity:1;"
       d="M 64.054688 11.734375 L 63.554688 11.21875 C 64.800781 10.035156 65.796875 9.246094 66.539063 8.859375 C 67.285156 8.464844 67.929688 8.265625 68.460938 8.265625 C 68.65625 8.265625 68.8125 8.316406 68.929688 8.40625 C 69.050781 8.492188 69.117188 8.589844 69.117188 8.703125 C 69.117188 8.789063 69.089844 8.945313 69.039063 9.171875 L 68.382813 12.109375 C 69.371094 11.007813 70.621094 9.976563 72.132813 9.015625 C 72.933594 8.527344 73.589844 8.28125 74.101563 8.28125 C 74.484375 8.28125 74.78125 8.410156 74.992188 8.65625 C 75.207031 8.898438 75.320313 9.246094 75.320313 9.703125 C 75.320313 10.007813 75.277344 10.347656 75.195313 10.71875 C 75.039063 11.355469 74.625 12.742188 73.960938 14.875 C 73.335938 16.867188 73.023438 18.191406 73.023438 18.84375 C 73.023438 19.03125 73.046875 19.179688 73.101563 19.28125 C 73.160156 19.375 73.25 19.421875 73.367188 19.421875 C 73.644531 19.421875 74.089844 19.152344 74.695313 18.609375 C 75.121094 18.214844 75.546875 17.851563 75.976563 17.515625 L 76.351563 18.046875 C 75.453125 19.046875 74.519531 19.851563 73.554688 20.453125 C 72.9375 20.835938 72.425781 21.03125 72.023438 21.03125 C 71.65625 21.03125 71.371094 20.894531 71.164063 20.625 C 70.953125 20.367188 70.851563 19.933594 70.851563 19.328125 C 70.851563 18.457031 71.390625 16.289063 72.476563 12.828125 C 72.808594 11.601563 72.976563 10.882813 72.976563 10.671875 C 72.976563 10.371094 72.796875 10.21875 72.445313 10.21875 C 72.046875 10.21875 71.542969 10.429688 70.929688 10.84375 C 70.011719 11.449219 69.246094 12.164063 68.632813 12.984375 C 68.234375 13.507813 67.90625 14.347656 67.648438 15.5 L 66.460938 20.609375 L 64.273438 20.609375 C 64.6875 19.144531 65.046875 17.742188 65.351563 16.40625 L 66.648438 10.84375 C 66.699219 10.617188 66.726563 10.453125 66.726563 10.359375 C 66.726563 10.089844 66.625 9.953125 66.429688 9.953125 C 66.273438 9.953125 66.046875 10.058594 65.757813 10.265625 C 65.152344 10.671875 64.582031 11.164063 64.054688 11.734375 Z M 64.054688 11.734375 "
       id="path835" />
    <path
       style=" stroke:none;fill-rule:nonzero;fill:rgb(100%,100%,100%);fill-opacity:1;"
       d="M 88.726563 17.59375 L 89.132813 18.15625 C 87.828125 19.25 86.859375 19.980469 86.226563 20.34375 C 85.339844 20.839844 84.644531 21.09375 84.148438 21.09375 C 83.90625 21.09375 83.714844 21.023438 83.570313 20.890625 C 83.421875 20.765625 83.351563 20.621094 83.351563 20.453125 C 83.351563 20.289063 83.402344 20.011719 83.507813 19.625 L 84.023438 17.84375 C 82.855469 19.105469 81.878906 19.960938 81.101563 20.40625 C 80.320313 20.851563 79.613281 21.078125 78.992188 21.078125 C 78.46875 21.078125 78.03125 20.851563 77.679688 20.40625 C 77.324219 19.949219 77.148438 19.277344 77.148438 18.390625 C 77.148438 17.007813 77.621094 15.414063 78.570313 13.609375 C 79.527344 11.808594 80.589844 10.476563 81.757813 9.609375 C 82.921875 8.746094 83.992188 8.3125 84.960938 8.3125 C 85.175781 8.3125 85.5 8.351563 85.929688 8.421875 C 86.386719 6.519531 86.824219 5.125 87.242188 4.25 C 87.667969 3.378906 88.210938 2.625 88.867188 2 C 89.53125 1.367188 90.292969 0.875 91.148438 0.53125 C 92 0.179688 92.796875 0 93.539063 0 C 93.933594 0 94.246094 0.105469 94.476563 0.3125 C 94.714844 0.511719 94.835938 0.769531 94.835938 1.078125 C 94.835938 1.382813 94.722656 1.632813 94.507813 1.828125 C 94.296875 2.015625 94.003906 2.109375 93.632813 2.109375 C 93.390625 2.109375 92.9375 2.0625 92.273438 1.96875 C 91.605469 1.867188 91.152344 1.8125 90.914063 1.8125 C 90.570313 1.8125 90.265625 1.925781 90.007813 2.140625 C 89.746094 2.351563 89.5 2.800781 89.273438 3.484375 C 89.117188 3.921875 88.753906 5.324219 88.195313 7.6875 L 86.117188 16.53125 C 85.875 17.585938 85.757813 18.285156 85.757813 18.625 C 85.757813 18.992188 85.898438 19.171875 86.179688 19.171875 C 86.355469 19.171875 86.558594 19.109375 86.789063 18.984375 C 87.121094 18.800781 87.765625 18.335938 88.726563 17.59375 Z M 85.617188 10.03125 C 84.835938 9.855469 84.28125 9.765625 83.960938 9.765625 C 83.3125 9.765625 82.675781 10.027344 82.054688 10.546875 C 81.429688 11.058594 80.824219 12.054688 80.242188 13.53125 C 79.65625 15 79.367188 16.285156 79.367188 17.375 C 79.367188 17.875 79.5 18.289063 79.773438 18.609375 C 80.042969 18.921875 80.34375 19.078125 80.679688 19.078125 C 81.09375 19.078125 81.5625 18.898438 82.085938 18.53125 C 82.84375 17.992188 83.445313 17.335938 83.882813 16.5625 C 84.140625 16.074219 84.496094 14.882813 84.945313 12.984375 Z M 85.617188 10.03125 "
       id="path837" />
    <path
       style=" stroke:none;fill-rule:nonzero;fill:rgb(100%,100%,100%);fill-opacity:1;"
       d="M 98.300781 16.953125 L 98.785156 17.59375 C 96.398438 19.867188 94.351563 21 92.644531 21 C 91.945313 21 91.414063 20.761719 91.050781 20.296875 C 90.683594 19.832031 90.503906 19.078125 90.503906 18.046875 C 90.503906 15.957031 91.136719 13.875 92.410156 11.8125 C 93.824219 9.460938 95.527344 8.28125 97.519531 8.28125 C 98.203125 8.28125 98.730469 8.457031 99.097656 8.796875 C 99.46875 9.140625 99.660156 9.617188 99.660156 10.21875 C 99.660156 10.855469 99.433594 11.480469 98.988281 12.09375 C 98.550781 12.710938 97.765625 13.351563 96.644531 14.015625 C 96.070313 14.339844 94.855469 14.925781 93.003906 15.765625 C 92.917969 16.289063 92.878906 16.789063 92.878906 17.265625 C 92.878906 17.964844 92.988281 18.449219 93.207031 18.71875 C 93.421875 18.992188 93.742188 19.125 94.160156 19.125 C 94.5625 19.125 95.003906 19.015625 95.472656 18.796875 C 96.117188 18.496094 97.058594 17.882813 98.300781 16.953125 Z M 93.175781 14.828125 C 94.746094 14.121094 95.929688 13.359375 96.722656 12.546875 C 97.261719 11.988281 97.535156 11.429688 97.535156 10.875 C 97.535156 10.449219 97.421875 10.109375 97.207031 9.859375 C 96.988281 9.613281 96.699219 9.484375 96.347656 9.484375 C 95.980469 9.484375 95.625 9.628906 95.285156 9.90625 C 94.824219 10.261719 94.4375 10.808594 94.128906 11.546875 C 93.679688 12.621094 93.359375 13.714844 93.175781 14.828125 Z M 93.175781 14.828125 "
       id="path839" />
    <path
       style=" stroke:none;fill-rule:nonzero;fill:rgb(100%,100%,100%);fill-opacity:1;"
       d="M 123.929688 19.984375 L 123.773438 20.8125 C 123.429688 20.839844 123.121094 20.859375 122.851563 20.859375 C 122.476563 20.859375 122.015625 20.824219 121.476563 20.765625 C 120.558594 20.671875 119.980469 20.625 119.742188 20.625 C 119.324219 20.625 118.691406 20.6875 117.851563 20.8125 C 118.152344 20.054688 118.40625 19.25 118.617188 18.40625 C 118.761719 17.816406 118.917969 16.792969 119.085938 15.34375 C 117.9375 15.335938 116.160156 15.355469 113.757813 15.40625 C 111.277344 19.199219 109.457031 21.578125 108.304688 22.546875 C 107.148438 23.523438 106.046875 24.015625 105.007813 24.015625 C 104.457031 24.015625 104.046875 23.902344 103.773438 23.6875 C 103.503906 23.476563 103.367188 23.207031 103.367188 22.875 C 103.367188 22.625 103.449219 22.414063 103.601563 22.25 C 103.757813 22.082031 103.957031 22 104.195313 22 C 104.332031 22 104.519531 22.023438 104.757813 22.078125 C 105.339844 22.210938 105.730469 22.28125 105.929688 22.28125 C 106.574219 22.28125 107.292969 21.910156 108.085938 21.171875 C 109.375 19.957031 111.28125 17.414063 113.804688 13.546875 C 116.65625 9.175781 118.964844 5.992188 120.726563 4 C 118.320313 4.21875 116.816406 4.425781 116.226563 4.609375 C 115.402344 4.882813 114.78125 5.277344 114.367188 5.796875 C 113.960938 6.308594 113.757813 6.835938 113.757813 7.375 C 113.757813 7.542969 113.820313 7.789063 113.945313 8.109375 C 114.089844 8.476563 114.164063 8.742188 114.164063 8.90625 C 114.164063 9.125 114.078125 9.320313 113.914063 9.484375 C 113.746094 9.640625 113.542969 9.71875 113.304688 9.71875 C 112.96875 9.71875 112.703125 9.601563 112.507813 9.359375 C 112.308594 9.113281 112.210938 8.734375 112.210938 8.234375 C 112.210938 7.527344 112.390625 6.84375 112.757813 6.1875 C 113.121094 5.535156 113.640625 4.980469 114.320313 4.53125 C 115.003906 4.085938 115.867188 3.746094 116.898438 3.515625 C 117.417969 3.394531 118.34375 3.277344 119.679688 3.171875 C 120.832031 3.082031 121.558594 2.992188 121.851563 2.90625 C 122.308594 2.773438 122.746094 2.523438 123.164063 2.15625 C 122.871094 3.355469 122.660156 4.402344 122.539063 5.296875 L 121.398438 13.765625 L 120.726563 19.828125 C 121.453125 20.015625 122.105469 20.109375 122.679688 20.109375 C 123.0625 20.109375 123.480469 20.070313 123.929688 19.984375 Z M 119.210938 14.25 C 119.675781 10.292969 120.148438 7.398438 120.617188 5.5625 C 119.375 7.210938 118.609375 8.246094 118.320313 8.671875 L 114.554688 14.25 C 115.363281 14.28125 116.523438 14.296875 118.023438 14.296875 C 118.394531 14.296875 118.792969 14.28125 119.210938 14.25 Z M 119.210938 14.25 "
       id="path841" />
    <path
       style=" stroke:none;fill-rule:nonzero;fill:rgb(100%,100%,100%);fill-opacity:1;"
       d="M 132.9375 6.578125 L 133.109375 5.875 C 134.222656 5.792969 135.425781 5.59375 136.71875 5.28125 C 136.375 6.292969 136.121094 7.105469 135.96875 7.71875 L 135.171875 10.984375 C 136.898438 10.984375 138.203125 10.554688 139.078125 9.6875 C 139.949219 8.824219 140.390625 7.796875 140.390625 6.609375 C 140.390625 5.777344 140.070313 5.109375 139.4375 4.609375 C 138.8125 4.101563 137.871094 3.84375 136.625 3.84375 C 134.851563 3.84375 133.164063 4.269531 131.5625 5.109375 C 129.96875 5.945313 128.722656 7.039063 127.828125 8.390625 C 126.929688 9.746094 126.484375 11.101563 126.484375 12.453125 C 126.484375 12.820313 126.535156 13.164063 126.640625 13.484375 C 126.742188 13.796875 126.894531 14.089844 127.09375 14.359375 C 127.207031 14.515625 127.46875 14.730469 127.875 15 C 128.320313 15.3125 128.597656 15.550781 128.703125 15.703125 C 128.804688 15.851563 128.859375 16.027344 128.859375 16.234375 C 128.859375 16.433594 128.777344 16.613281 128.625 16.765625 C 128.476563 16.914063 128.300781 16.984375 128.09375 16.984375 C 127.53125 16.984375 126.960938 16.585938 126.390625 15.78125 C 125.816406 14.972656 125.53125 13.964844 125.53125 12.765625 C 125.53125 11.132813 126.019531 9.546875 127 8.015625 C 127.988281 6.476563 129.378906 5.242188 131.171875 4.3125 C 132.972656 3.386719 134.953125 2.921875 137.109375 2.921875 C 138.867188 2.921875 140.203125 3.273438 141.109375 3.96875 C 142.023438 4.65625 142.484375 5.496094 142.484375 6.484375 C 142.484375 7.433594 142.175781 8.300781 141.5625 9.078125 C 140.945313 9.851563 140.011719 10.449219 138.765625 10.875 C 139.628906 11.011719 140.304688 11.246094 140.796875 11.578125 C 141.292969 11.902344 141.679688 12.316406 141.953125 12.8125 C 142.222656 13.304688 142.359375 13.871094 142.359375 14.515625 C 142.359375 15.570313 142.042969 16.570313 141.421875 17.515625 C 140.804688 18.453125 139.894531 19.238281 138.6875 19.859375 C 137.476563 20.476563 136.214844 20.78125 134.90625 20.78125 C 134.53125 20.78125 133.714844 20.742188 132.46875 20.671875 C 131.875 20.640625 131.246094 20.625 130.59375 20.625 C 129.59375 20.625 128.707031 20.703125 127.9375 20.859375 L 128.15625 20.046875 C 129.183594 19.996094 129.914063 19.75 130.34375 19.3125 C 130.777344 18.878906 131.191406 17.917969 131.578125 16.4375 L 133.734375 7.921875 C 133.824219 7.558594 133.875 7.289063 133.875 7.109375 C 133.875 6.964844 133.808594 6.835938 133.6875 6.71875 C 133.5625 6.605469 133.410156 6.546875 133.234375 6.546875 C 133.148438 6.546875 133.050781 6.558594 132.9375 6.578125 Z M 134.9375 11.859375 L 134.203125 14.8125 C 133.816406 16.335938 133.445313 17.507813 133.09375 18.328125 C 132.894531 18.820313 132.632813 19.230469 132.3125 19.5625 C 133.183594 19.78125 133.941406 19.890625 134.578125 19.890625 C 136.285156 19.890625 137.578125 19.367188 138.453125 18.3125 C 139.324219 17.261719 139.765625 16.085938 139.765625 14.78125 C 139.765625 14.136719 139.597656 13.585938 139.265625 13.125 C 138.941406 12.660156 138.511719 12.328125 137.984375 12.140625 C 137.453125 11.957031 136.433594 11.859375 134.9375 11.859375 Z M 134.9375 11.859375 "
       id="path843" />
    <g
       clip-path="url(#clip2)"
       clip-rule="nonzero"
       id="g847">
      <path
         style=" stroke:none;fill-rule:nonzero;fill:rgb(100%,100%,100%);fill-opacity:1;"
         d="M 158.988281 9.4375 L 158.191406 9.4375 C 158.242188 8.679688 158.269531 8.070313 158.269531 7.609375 C 158.269531 6.226563 157.980469 5.261719 157.410156 4.71875 C 156.835938 4.179688 156.109375 3.90625 155.238281 3.90625 C 154.082031 3.90625 152.875 4.382813 151.628906 5.328125 C 150.378906 6.265625 149.296875 7.738281 148.394531 9.734375 C 147.496094 11.734375 147.050781 13.789063 147.050781 15.890625 C 147.050781 17.933594 147.464844 19.503906 148.300781 20.59375 C 149.140625 21.675781 150.195313 22.21875 151.457031 22.21875 C 153.164063 22.21875 154.730469 21.191406 156.160156 19.140625 C 156.304688 18.945313 156.457031 18.84375 156.613281 18.84375 C 156.734375 18.84375 156.839844 18.886719 156.925781 18.96875 C 157.015625 19.054688 157.066406 19.148438 157.066406 19.25 C 157.066406 19.511719 156.734375 20.027344 156.082031 20.796875 C 155.433594 21.566406 154.617188 22.207031 153.628906 22.71875 C 152.648438 23.238281 151.679688 23.5 150.722656 23.5 C 149.566406 23.5 148.492188 23.195313 147.503906 22.59375 C 146.523438 21.988281 145.757813 21.132813 145.207031 20.03125 C 144.664063 18.917969 144.394531 17.589844 144.394531 16.046875 C 144.394531 13.914063 144.949219 11.789063 146.066406 9.671875 C 147.179688 7.550781 148.574219 5.914063 150.253906 4.765625 C 151.9375 3.613281 153.585938 3.03125 155.191406 3.03125 C 155.761719 3.03125 156.332031 3.097656 156.894531 3.21875 C 157.140625 3.28125 158.152344 3.621094 159.925781 4.234375 C 159.363281 5.914063 159.046875 7.648438 158.988281 9.4375 Z M 158.988281 9.4375 "
         id="path845" />
    </g>
  </g>
</svg>
